<!DOCTYPE svg PUBLIC "-//W3C//DTD SVG 1.1//EN" 
  "http://www.w3.org/Graphics/SVG/1.1/DTD/svg11.dtd">

<svg width="1160px" height="1458px" viewBox="-130 0 1160 1458"
  version="1.1" xmlns="http://www.w3.org/2000/svg" xmlns:xlink="http://www.w3.org/1999/xlink">
  <title>Bitcoin hash rate and mining ASICs efficiency</title>
  <style type="text/css">

.area0 { fill: #ddd; }
.area1 { fill: #bbb; }

.axis {
	stroke: black;
	stroke-width: 2;
	fill: none;
}

.horiz {
	stroke: #888;
	stroke-width: 2;
}

.dash {
	stroke: #444;
	stroke-width: 1;
	stroke-dasharray: 2 8;
	fill: none;
}

.rate {
	stroke: black;
	stroke-width: 1;
}

.asic { stroke-width: 50; }

.hrlab { text-anchor: start; }

.phases { fill: black; }

.jump {
	fill: none;
	stroke: black;
	stroke-width: 1;
}

.lg { font-size: 24px; }

text {
    font-family: monospace;
    font-size: 18px;
}
</style>

  <defs>
    <!-- arrow pointing down --> <polygon id="slotx" points="0,0 5,-16 -5,-16 0,0" fill="white"/>
    <!-- vertical zig zag --> <polyline id="zigzag" points="-2,-25 2,-20 -2,-15 2,-10 -2,-5 2,0 -2,5 2,10 -2,15 2,20 -2,25"
    fill="none" stroke="black" stroke-width="2"/>
  </defs>

  <!-- background -->
  <rect x="-130" y="0" width="1160" height="1458" fill="none" />

  <!-- areas -->
  <polygon points="-70,1000 -70,914 1000,914 1000,1000" class="area0" />
  <polygon points="-70,914 -70,902 1000,902 1000,914" class="area1" />
  <polygon points="-70,902 -70,889 1000,889 1000,902" class="area0" />
  <polygon points="-70,889 -70,868 1000,868 1000,889" class="area1" />
  <polygon points="-70,868 -70,856 1000,856 1000,868" class="area0" />
  <polygon points="-70,856 -70,749 1000,749 1000,856" class="area1" />
  <polygon points="-70,749 -70,545 1000,545 1000,749" class="area0" />
  <polygon points="-70,545 -70,438 1000,438 1000,545" class="area1" />
  <polygon points="-70,438 -70,394 1000,394 1000,438" class="area0" />
  <polygon points="-70,394 -70,15 1000,15 1000,394" class="area1" />

  <!-- chart background (roughly a triangular shape covering the top left half and slightly overlapping
  with the hash rate line fill area) -->
  <polygon points="-70,1000 85.3242320819,913.518110217 87.3242320819,913.518110217 1002,14.5181796318 1000,14.5181796318 1000,0 -70,0"
      fill="white" />

  <text x="500" y="21" class="lg" text-anchor="middle">Bitcoin hash rate (petahash/sec)</text>

  <!-- dashed line for 2009-2014 -->
  <polyline stroke="black" stroke-width="1" stroke-dasharray="5 5" fill="none" points="-70,1000 85.3242320819,913.518110217" />

  <!-- hash rate line
  Daily hash rate from https://www.quandl.com/data/BCHAIN/HRATE-Bitcoin-Hash-Rate
  for the period 2014-12-15 to 2017-02-26, averaged over the 9 previous days.
  -->
  <polyline class="rate" fill="white" points="
85.3242320819 913.518110217
86.4618885097 914.24130372
87.5995449374 913.939973094
88.7372013652 914.718020503
89.8748577929 915.724709388
91.0125142207 917.227606703
92.1501706485 917.347695944
93.2878270762 918.237993586
94.425483504 917.227105875
95.5631399317 916.207107945
96.7007963595 915.382816021
97.8384527873 914.839149681
98.976109215 912.982879813
100.113765643 911.318617951
101.251422071 908.643911388
102.389078498 908.34672177
103.526734926 907.476060425
104.664391354 904.980968024
105.802047782 904.814649436
106.939704209 903.749632133
108.077360637 903.632056677
109.215017065 901.906092353
110.352673493 901.804559085
111.49032992 902.670074781
112.627986348 904.45033138
113.765642776 903.822769125
114.903299204 904.679854569
116.040955631 905.843041957
117.178612059 904.775325959
118.316268487 907.860514167
119.453924915 908.02121024
120.591581342 909.099199154
121.72923777 908.84138707
122.866894198 908.827443552
124.004550626 907.222782914
125.142207053 906.261442854
126.279863481 906.944997038
127.417519909 906.869833131
128.555176337 907.797160539
129.692832765 906.538644771
130.830489192 908.525774932
131.96814562 909.386864668
133.105802048 910.844093452
134.243458476 910.314192076
135.381114903 910.360382815
136.518771331 910.057932063
137.656427759 909.364503892
138.794084187 908.802359447
139.931740614 908.168720334
141.069397042 907.242864502
142.20705347 906.864363178
143.344709898 905.200570579
144.482366325 904.473427763
145.620022753 903.197738823
146.757679181 902.327326712
147.895335609 904.938563044
149.032992036 903.200722141
150.170648464 902.792469862
151.308304892 903.316801988
152.44596132 903.348700754
153.583617747 902.366666456
154.721274175 901.594817701
155.858930603 901.760649238
156.996587031 902.060111749
158.134243458 902.373956536
159.271899886 899.550422092
160.409556314 898.947724624
161.547212742 897.87626246
162.68486917 898.679859083
163.822525597 897.675363304
164.960182025 897.416265364
166.097838453 898.493137486
167.235494881 896.496084696
168.373151308 896.950113493
169.510807736 896.218706737
170.648464164 897.506550944
171.786120592 897.940433882
172.923777019 898.508249591
174.061433447 896.919710399
175.199089875 895.990762131
176.336746303 897.608214782
177.47440273 896.201734216
178.612059158 897.25659464
179.749715586 896.412706301
180.887372014 898.093356596
182.025028441 896.799127138
183.162684869 895.48810513
184.300341297 896.534719667
185.437997725 897.433969127
186.575654152 898.901408331
187.71331058 896.416148405
188.850967008 898.168242232
189.988623436 897.867505198
191.126279863 898.764515651
192.263936291 897.978636803
193.401592719 898.693072119
194.539249147 900.336273347
195.676905575 900.336273347
196.814562002 899.407507436
197.95221843 897.228482731
199.089874858 896.048597938
200.227531286 894.921974633
201.365187713 893.034071715
202.502844141 892.551509726
203.640500569 892.141460801
204.778156997 892.22189081
205.915813424 891.952589885
207.053469852 891.46147164
208.19112628 891.975910499
209.328782708 893.101894494
210.466439135 893.94638249
211.604095563 893.184926459
212.741751991 895.680734697
213.879408419 894.393775475
215.017064846 896.156576208
216.154721274 895.498379371
217.292377702 895.40728518
218.43003413 895.195996236
219.567690557 895.411061939
220.705346985 895.535200397
221.843003413 894.604221823
222.980659841 896.689791991
224.118316268 896.019430151
225.255972696 897.881546374
226.393629124 896.838761289
227.531285552 897.360153832
228.66894198 895.572522258
229.806598407 894.373564433
230.944254835 894.247629352
232.081911263 894.852713576
233.219567691 898.014982648
234.357224118 896.131835799
235.494880546 895.724554743
236.632536974 895.808246425
237.770193402 894.454788428
238.907849829 895.332922316
240.045506257 898.158718823
241.183162685 899.019349368
242.320819113 898.73247252
243.45847554 898.73247252
244.596131968 897.865313325
245.733788396 897.857696568
246.871444824 898.280939137
248.009101251 896.623434284
249.146757679 897.261587193
250.284414107 897.470512936
251.422070535 897.751009514
252.559726962 897.600201629
253.69738339 896.8034757
254.835039818 895.074202177
255.972696246 894.500052804
257.110352673 893.710597417
258.248009101 894.787127491
259.385665529 893.622539076
260.523321957 894.171757949
261.660978385 893.215588272
262.798634812 892.033591272
263.93629124 891.478223253
265.073947668 892.377517729
266.211604096 895.181375792
267.349260523 894.862356402
268.486916951 896.116987133
269.624573379 895.377877021
270.762229807 897.436499258
271.899886234 897.804110372
273.037542662 896.260143694
274.17519909 897.583543704
275.312855518 898.02467704
276.450511945 898.392288154
277.588168373 896.748562596
278.725824801 896.935554188
279.863481229 897.34311245
281.001137656 897.088970706
282.138794084 896.20798644
283.276450512 893.941087567
284.41410694 895.376122343
285.551763367 892.879483781
286.689419795 892.360606815
287.827076223 891.321570478
288.964732651 892.038446662
290.102389078 890.891444767
291.240045506 890.217081158
292.377701934 889.168441499
293.515358362 891.502957256
294.65301479 892.845349737
295.790671217 891.425601621
296.928327645 890.987307023
298.065984073 892.283352616
299.203640501 894.262597872
300.341296928 892.933542923
301.478953356 893.555891628
302.616609784 893.106760369
303.754266212 892.358208271
304.891922639 890.486828025
306.029579067 891.534800963
307.167235495 892.058787432
308.304891923 893.915237271
309.44254835 893.30408963
310.580204778 891.645843867
311.717861206 892.305922571
312.855517634 890.954533571
313.993174061 890.722910867
315.130830489 891.909163077
316.268486917 890.336707706
317.406143345 888.904339794
318.543799772 888.447714054
319.6814562 888.373296251
320.819112628 887.405864819
321.956769056 887.405864819
323.094425484 887.206637417
324.232081911 888.106021682
325.369738339 888.94612132
326.507394767 887.887942959
327.645051195 890.075129629
328.782707622 890.009604657
329.92036405 889.15954653
331.058020478 888.426783532
332.195676906 888.956600981
333.333333333 888.975582595
334.470989761 888.283122611
335.608646189 887.975362619
336.746302617 885.744102671
337.883959044 885.54402602
339.021615472 885.14028787
340.1592719 884.013310108
341.296928328 885.141129656
342.434584755 884.409715283
343.572241183 884.700247683
344.709897611 884.525518961
345.847554039 882.920606112
346.985210466 882.020827213
348.122866894 883.370413924
349.260523322 884.079169005
350.39817975 885.024175779
351.535836177 886.205434247
352.673492605 886.205434247
353.811149033 885.475735939
354.948805461 885.547513108
356.086461889 882.601369132
357.224118316 882.10030261
358.361774744 884.699717751
359.499431172 884.447602769
360.6370876 885.150019446
361.774744027 884.434925961
362.912400455 883.790328141
364.050056883 883.30323145
365.187713311 884.335243689
366.325369738 883.541388121
367.463026166 885.367255928
368.600682594 886.478653724
369.738339022 884.017701462
370.875995449 883.341358716
372.013651877 882.781923149
373.151308305 880.587874417
374.288964733 880.978720432
375.42662116 879.980145255
376.564277588 879.233797358
377.701934016 878.566835018
378.839590444 877.147881043
379.977246871 877.683427562
381.114903299 876.913628651
382.252559727 876.995359309
383.390216155 875.605938118
384.527872582 876.096322068
385.66552901 874.333644744
386.803185438 874.046188006
387.940841866 872.581952151
389.078498294 873.091102401
390.216154721 874.650544996
391.353811149 874.322044975
392.491467577 872.817121745
393.629124005 870.396886324
394.766780432 871.314689865
395.90443686 871.644103848
397.042093288 871.043508078
398.179749716 870.013915328
399.317406143 870.871909286
400.455062571 870.442912307
401.592718999 869.49814989
402.730375427 869.797559467
403.868031854 873.571925331
405.005688282 876.616915574
406.14334471 873.984657366
407.281001138 872.589407743
408.418657565 873.271252142
409.556313993 872.77681542
410.693970421 872.690046961
411.831626849 872.363788836
412.969283276 869.771736929
414.106939704 867.715971623
415.244596132 864.334175421
416.38225256 864.681564882
417.519908987 865.058227343
418.657565415 864.632686128
419.795221843 864.035061389
420.932878271 864.865308029
422.070534699 865.369197431
423.208191126 865.24296668
424.345847554 868.522122641
425.483503982 868.726701579
426.62116041 869.093130884
427.758816837 867.719020991
428.896473265 869.367952863
430.034129693 869.276345537
431.171786121 867.884900265
432.309442548 867.318771744
433.447098976 867.671268935
434.584755404 867.106416639
435.722411832 866.175135038
436.860068259 864.600156058
437.997724687 866.693617853
439.135381115 866.220160179
440.273037543 864.09649441
441.41069397 863.896901547
442.548350398 866.098029824
443.686006826 866.098029824
444.823663254 864.172042581
445.961319681 862.796337408
447.098976109 863.438333156
448.236632537 864.783712421
449.374288965 861.051815931
450.511945392 860.096097377
451.64960182 859.584499454
452.787258248 860.110647512
453.924914676 858.041981025
455.062571104 857.722066322
456.200227531 857.689676447
457.337883959 859.332900371
458.475540387 856.520204629
459.613196815 857.270425781
460.750853242 858.86464573
461.88850967 859.708644526
463.026166098 857.062313868
464.163822526 856.178046802
465.301478953 854.429858051
466.439135381 853.888215695
467.576791809 853.478251161
468.714448237 848.868004288
469.852104664 848.183855488
470.989761092 847.425851933
472.12741752 847.324291887
473.265073948 844.962974116
474.402730375 844.863782161
475.540386803 842.086407417
476.678043231 842.780751103
477.815699659 841.206701219
478.953356086 838.719212556
480.091012514 838.43029413
481.228668942 838.077614481
482.36632537 835.970546414
483.503981797 832.658455336
484.641638225 831.997844231
485.779294653 828.620883321
486.916951081 829.776794182
488.054607509 829.872660311
489.192263936 828.119899567
490.329920364 826.148043731
491.467576792 825.052568266
492.60523322 823.382355628
493.742889647 820.430239578
494.880546075 816.538309804
496.018202503 809.615552873
497.155858931 809.796102418
498.293515358 806.000273144
499.431171786 804.020637966
500.568828214 801.4528888
501.706484642 797.29765068
502.844141069 796.121352472
503.981797497 795.1680917
505.119453925 795.048934104
506.257110353 794.320719997
507.39476678 793.88574202
508.532423208 793.059981164
509.670079636 793.110949297
510.807736064 787.638638059
511.945392491 787.635877014
513.083048919 791.770321756
514.220705347 785.605867546
515.358361775 777.10207898
516.496018203 773.503575076
517.63367463 773.925880405
518.771331058 773.362806633
519.908987486 772.507678863
521.046643914 771.230903083
522.184300341 773.019605104
523.321956769 770.678223035
524.459613197 762.156771486
525.597269625 762.833067977
526.734926052 769.001305708
527.87258248 769.131557039
529.010238908 763.143937465
530.147895336 762.616173864
531.285551763 758.547631029
532.423208191 753.070746445
533.560864619 746.967932193
534.698521047 744.158492905
535.836177474 749.003424601
536.973833902 753.507350788
538.11149033 751.054192183
539.249146758 749.852892911
540.386803185 747.355414585
541.524459613 746.793814349
542.662116041 748.465781861
543.799772469 752.186794031
544.937428896 751.553335336
546.075085324 747.113738579
547.212741752 741.308112051
548.35039818 732.77042598
549.488054608 726.851559456
550.625711035 722.740841334
551.763367463 725.862146225
552.901023891 720.565927874
554.038680319 713.491744476
555.176336746 704.006886741
556.313993174 700.357838891
557.451649602 701.269121224
558.58930603 698.152456775
559.726962457 694.242105134
560.864618885 691.34906769
562.002275313 684.6589186
563.139931741 671.908597338
564.277588168 667.695154594
565.415244596 663.0106721
566.552901024 658.687819286
567.690557452 648.829384011
568.828213879 643.965238133
569.965870307 642.211798382
571.103526735 636.585812116
572.241183163 637.002726176
573.37883959 639.191510525
574.516496018 648.309414591
575.654152446 644.184648466
576.791808874 646.640546156
577.929465301 644.417138673
579.067121729 655.06780416
580.204778157 657.569285288
581.342434585 657.536812593
582.480091013 666.321200291
583.61774744 662.740470631
584.755403868 658.145437826
585.893060296 656.275873609
587.030716724 658.657001596
588.168373151 659.642118475
589.306029579 667.030495063
590.443686007 659.395839255
591.581342435 658.657001596
592.718998862 654.470254862
593.85665529 645.604202955
594.994311718 648.142301825
596.131968146 648.093392422
597.269624573 648.376833583
598.407281001 645.695142228
599.544937429 640.52014289
600.682593857 633.143888469
601.820250284 637.205436335
602.957906712 638.697386755
604.09556314 640.095636884
605.233219568 642.979191277
606.370875995 635.581032808
607.508532423 640.354038272
608.646188851 637.929807096
609.783845279 643.65163369
610.921501706 644.430062926
612.059158134 651.918286872
613.196814562 649.37691127
614.33447099 642.99583231
615.472127418 641.387758814
616.609783845 641.51413419
617.747440273 645.437614951
618.885096701 639.51253755
620.022753129 638.515338484
621.160409556 629.789846654
622.298065984 627.795448522
623.435722412 628.044748288
624.57337884 630.756776575
625.711035267 630.699978992
626.848691695 631.397202656
627.986348123 626.325840656
629.124004551 625.523184422
630.261660978 624.708284295
631.399317406 623.413150475
632.536973834 630.355112198
633.674630262 629.276627761
634.812286689 616.705866274
635.949943117 613.187100457
637.087599545 612.684419625
638.225255973 610.17101547
639.3629124 606.980109365
640.500568828 605.40221633
641.638225256 605.870677719
642.775881684 601.385515717
643.913538111 600.488459009
645.051194539 600.832211551
646.188850967 600.154709602
647.326507395 597.464561607
648.464163823 597.17900175
649.60182025 597.880988005
650.739476678 606.763134856
651.877133106 611.60794223
653.014789534 609.454694508
654.152445961 615.914437673
655.290102389 615.649184395
656.427758817 613.500470678
657.565415245 618.618623667
658.703071672 617.546447722
659.8407281 613.782769517
660.978384528 611.903010892
662.116040956 602.218217112
663.253697383 594.417170733
664.391353811 591.461103905
665.529010239 585.813133071
666.666666667 578.546696808
667.804323094 574.509787774
668.941979522 571.280260547
670.07963595 574.076529278
671.217292378 575.65533264
672.354948805 571.815312588
673.492605233 574.891415985
674.630261661 576.201092078
675.767918089 578.540291815
676.905574516 577.649964325
678.043230944 576.454231531
679.180887372 587.606230919
680.3185438 586.527961704
681.456200228 584.187001827
682.593856655 571.019102518
683.731513083 562.533122963
684.869169511 560.535403092
686.006825939 559.476487932
687.144482366 559.6032889
688.282138794 559.129613709
689.419795222 564.261426795
690.55745165 555.533447277
691.695108077 555.599303488
692.832764505 558.728485249
693.970420933 569.336279002
695.108077361 580.867641276
696.245733788 582.368831673
697.383390216 588.373593259
698.521046644 578.165498562
699.658703072 568.858118103
700.796359499 566.155975389
701.934015927 567.761811239
703.071672355 562.5650015
704.209328783 558.166075764
705.34698521 555.327100558
706.484641638 553.640110892
707.622298066 548.723952521
708.759954494 545.171877566
709.897610922 551.030013305
711.035267349 558.064617972
712.172923777 556.692556418
713.310580205 552.262435396
714.448236633 548.718338579
715.58589306 542.81151055
716.723549488 541.873133562
717.861205916 544.291629218
718.998862344 547.669588235
720.136518771 545.93313134
721.274175199 539.040327888
722.411831627 536.665589756
723.549488055 534.290851624
724.687144482 534.23849884
725.82480091 540.448834281
726.962457338 541.557674172
728.100113766 539.033559508
729.237770193 532.723272848
730.375426621 528.306072186
731.513083049 520.782758637
732.650739477 526.546709823
733.788395904 527.923179306
734.926052332 529.942565039
736.06370876 530.342772565
737.201365188 528.510604592
738.339021615 525.690287079
739.476678043 529.257525518
740.614334471 530.300649293
741.751990899 537.100300355
742.889647327 539.993423478
744.027303754 543.208004725
745.164960182 537.743216604
746.30261661 534.207177232
747.440273038 532.900341706
748.577929465 539.632919458
749.715585893 541.540524219
750.853242321 544.736357799
751.990898749 549.218587717
753.128555176 548.878663843
754.266211604 554.004232891
755.403868032 554.950000557
756.54152446 563.932644221
757.679180887 570.665221972
758.816837315 574.524410988
759.954493743 568.41402838
761.092150171 578.383600004
762.229806598 571.630019226
763.367463026 563.911641194
764.505119454 558.901553955
765.642775882 548.32983016
766.780432309 544.249594487
767.918088737 534.338541706
769.055745165 524.714142322
770.193401593 523.762533275
771.33105802 525.722788835
772.468714448 525.977299805
773.606370876 529.276370235
774.744027304 532.862094062
775.881683732 534.686851506
777.019340159 535.90335647
778.156996587 532.557967821
779.294653015 536.147850906
780.432309443 542.403964498
781.56996587 547.138507397
782.707622298 542.026279275
783.845278726 529.615021374
784.982935154 524.760275378
786.120591581 517.005138808
787.258248009 510.255669193
788.395904437 511.997472775
789.533560865 511.774586565
790.671217292 517.013759345
791.80887372 518.323552541
792.946530148 511.447138267
794.084186576 512.102034864
795.221843003 512.980541868
796.359499431 509.193297846
797.497155859 517.674406211
798.634812287 522.850478522
799.772468714 520.106685529
800.910125142 528.306175195
802.04778157 511.349708734
803.185437998 508.017217455
804.323094425 509.944267667
805.460750853 509.170256645
806.598407281 510.832959028
807.736063709 518.148849512
808.873720137 511.498039981
810.011376564 503.849609021
811.149032992 499.277613637
812.28668942 484.706460571
813.424345848 491.161835479
814.562002275 485.328508346
815.699658703 482.927655111
816.837315131 478.02311925
817.974971559 476.581648468
819.112627986 478.889896471
820.250284414 478.384864758
821.387940842 476.4502498
822.52559727 483.934391778
823.663253697 494.14003993
824.800910125 490.397968941
825.938566553 475.198682038
827.076222981 467.228228496
828.213879408 461.268059548
829.351535836 456.815436632
830.489192264 450.097443723
831.626848692 450.546594102
832.764505119 449.967524211
833.902161547 446.697793182
835.039817975 437.729964407
836.177474403 437.127704934
837.31513083 444.03188415
838.452787258 441.124861322
839.590443686 450.209307659
840.728100114 438.175326815
841.865756542 427.829339121
843.003412969 430.750071861
844.141069397 433.669433088
845.278725825 428.438160381
846.416382253 433.824377517
847.55403868 438.275410737
848.691695108 443.66025636
849.829351536 451.538011418
850.967007964 455.185499865
852.104664391 460.63753918
853.242320819 473.878206088
854.379977247 470.373323672
855.517633675 460.63753918
856.655290102 460.180626136
857.79294653 455.01359652
858.930602958 453.344061318
860.068259386 455.539287899
861.205915813 453.061337924
862.343572241 439.849233393
863.481228669 442.140504016
864.618885097 434.284394758
865.756541524 421.902869008
866.894197952 429.60923893
868.03185438 431.519455812
869.169510808 435.721932954
870.307167235 430.755369059
871.444823663 439.542366718
872.582480091 435.497047974
873.720136519 438.32096353
874.857792947 440.392866694
875.995449374 432.496928281
877.133105802 440.680016174
878.27076223 432.40354368
879.408418658 424.898704415
880.546075085 411.27362465
881.683731513 416.024359335
882.821387941 394.370331485
883.959044369 391.685462783
885.096700796 384.781514694
886.234357224 379.795329962
887.372013652 381.790181858
888.50967008 377.893856718
889.647326507 387.570598121
890.784982935 390.660109641
891.922639363 398.214366261
893.060295791 390.66134565
894.197952218 387.014904251
895.335608646 382.325583588
896.473265074 382.924111757
897.610921502 382.781424763
898.748577929 375.989473453
899.886234357 372.169000842
901.023890785 366.650540403
902.161547213 364.103558662
903.299203641 358.781626125
904.436860068 346.882829769
905.574516496 352.567902472
906.712172924 351.431108227
907.849829352 352.007259629
908.987485779 337.539044804
910.125142207 339.33633471
911.262798635 345.118633236
912.400455063 348.37638675
913.53811149 329.141479576
914.675767918 323.95776918
915.813424346 321.365913982
916.951080774 325.25369678
918.088737201 331.578736408
919.226393629 334.236582161
920.364050057 342.087340282
921.501706485 344.031360906
922.639362912 331.332635206
923.77701934 323.878880244
924.914675768 330.804426292
926.052332196 323.906744616
927.189988623 329.782981169
928.327645051 325.820264295
929.465301479 307.131983333
930.602957907 302.927120117
931.740614334 297.787842852
932.878270762 285.180709894
934.01592719 284.412650096
935.153583618 273.753794014
936.291240046 277.213297083
937.428896473 276.844345355
938.566552901 271.290717061
939.704209329 256.814756006
940.841865757 261.14057417
941.979522184 260.486012628
943.117178612 256.32265558
944.25483504 268.286576822
945.392491468 260.151110378
946.530147895 270.200804221
947.667804323 259.827768291
948.805460751 256.835663082
949.943117179 245.607854061
951.080773606 247.459196771
952.218430034 233.867543212
953.356086462 216.113576561
954.49374289 207.394310632
955.631399317 193.729256175
956.769055745 197.016269434
957.906712173 173.795599459
959.044368601 159.078199204
960.182025028 144.868295509
961.319681456 129.666112836
962.457337884 124.017213116
963.594994312 123.106253372
964.732650739 119.065862045
965.870307167 111.896822383
967.007963595 91.4499864206
968.145620023 78.1057525664
969.283276451 67.5547079109
970.420932878 77.0470360342
971.558589306 83.071340453
972.696245734 72.4162624206
973.833902162 61.7611843885
974.971558589 61.7611843885
976.109215017 58.3413545697
977.246871445 50.1619244524
978.384527873 71.2999870185
979.5221843 65.2483797206
980.659840728 71.2557333148
981.797497156 50.2054082255
982.935153584 41.9179969897
984.072810011 67.1756909509
985.210466439 70.4432859479
986.348122867 54.9844822352
987.485779295 39.7217820827
988.623435722 52.4406988764
989.76109215 35.2701612048
990.898748578 35.2701612048
992.036405006 27.1935342809
993.174061433 45.6952731915
994.311717861 41.5464516185
995.449374289 38.313901667
996.587030717 35.689264977
997.724687144 39.7516741633
998.862343572 37.0061037018
1000.0 14.5181796318
" />

  <!-- x axis -->
  <polyline points="1000,1000 -70,1000" class="axis" />
  <!-- break between Genesis and Dec 2014 -->
  <g transform="translate(55,0)">
      <polygon points="-60,1020 -50,980 -30,980 -40,1020" fill="white" />
      <line x1="-60" x2="-50" y1="1020" y2="980" class="axis"/>
      <line x1="-30" x2="-40" y1="980" y2="1020" class="axis"/>
  </g>
  <g transform="translate(0,1018)" text-anchor="middle">
      <text x="-70">Jan</text> <text x="-70" dy="18">2009</text> <text x="-70" dy="36">(Genesis)</text>
      <text x="85">Dec</text>    <text x="85" dy="18">2014</text>
      <text x="156">Feb</text>  <text x="156" dy="18">2015</text>
      <text x="292">Jun</text>  <text x="292" dy="18">2015</text>
      <text x="431" dx="-4">Oct</text>  <text x="431" dy="18" dx="-6">2015</text>
      <text x="464" dx="4">Nov</text>  <text x="464" dy="18" dx="6">2015</text>
      <text x="536">Jan</text>  <text x="536" dy="18">2016</text>
      <text x="709">Jun</text>  <text x="709" dy="18">2016</text>
      <text x="848" dx="-4">Oct</text>  <text x="848" dy="18" dx="-6">2016</text>
      <text x="883" dx="4">Nov</text>  <text x="883" dy="18" dx="6">2016</text>
      <text x="1000">Feb</text> <text x="1000" dy="18">2017</text>
  </g>

  <!-- y axis -->
  <polyline points="-70,0 -70,1000" class="axis" />
  <line x1="-70" y1="697" x2="1000" y2="697" class="horiz" /> <text x="-65" y="692">1000</text>
  <line x1="-70" y1="394" x2="1000" y2="394" class="horiz" /> <text x="-65" y="389">2000</text>
  <line x1="-70" y1="91" x2="1000" y2="91" class="horiz" /> <text x="-65" y="86">3000</text>

  <!-- hash rate labels -->
  <circle cx="-70" cy="1000" r="6" />
  <circle cx="85" cy="914" r="6" />
  <circle cx="156" cy="902" r="6" />
  <circle cx="292" cy="889" r="6" />
  <circle cx="431" cy="868" r="6" />
  <circle cx="464" cy="856" r="6" />
  <circle cx="536" cy="749" r="6" />
  <circle cx="709" cy="545" r="6" />
  <circle cx="848" cy="438" r="6" />
  <circle cx="883" cy="394" r="6" />
  <circle cx="1000" cy="15" r="6" />
  <g transform="translate(7,13)">
    <text x="85" y="914" transform="rotate(35,85,914)" class="hrlab">290 PH/s</text>
    <text x="156" y="902" transform="rotate(35,156,902)" class="hrlab">320 PH/s</text>
    <text x="292" y="889" transform="rotate(35,292,889)" class="hrlab">370 PH/s</text>
    <text x="431" y="868" transform="rotate(35,431,868)" class="hrlab">440 PH/s</text>
    <text x="464" y="856" transform="rotate(35,464,856)" class="hrlab">480 PH/s</text>
    <text x="536" y="749" transform="rotate(35,536,749)" class="hrlab">830 PH/s</text>
    <text x="709" y="545" transform="rotate(35,709,545)" class="hrlab">1500 PH/s</text>
    <text x="848" y="438" transform="rotate(35,848,438) translate(10,0)" class="hrlab">1850 PH/s</text>
    <text x="883" y="394" transform="rotate(35,883,394)" class="hrlab">2000 PH/s</text>
    <text x="1000" y="15" transform="translate(-20,-6)" text-anchor="end">3250 PH/s</text>
  </g>

  <!-- phase labels -->
  <path class="jump" d="
         M -70,1000
  Q-30,930 85,914
  Q90,885  156,902
  Q170,860 292,889
  Q300,845 431,868
  Q440,840 464,856
  Q460,790 536,749
  Q550,560 709,545
  Q720,430 848,438
  Q850,400 883,394
  Q930,50  1000,15
  " />
  <g transform="translate(-55,900)"><text>Phase 0</text><text y="18">+290 PH/s</text></g>
  <g transform="translate(60,870)"><text>Phase 1</text><text y="18">+30 PH/s</text></g>
  <g transform="translate(160,850)"><text>Phase 2</text><text y="18">+50 PH/s</text></g>
  <g transform="translate(270,835)"><text>Phase 3</text><text y="18">+70 PH/s</text></g>
  <g transform="translate(365,820)"><text>Phase 4</text><text y="18">+40 PH/s</text></g>
  <g transform="translate(400,750)"><text>Phase 5</text><text y="18">+350 PH/s</text></g>
  <g transform="translate(470,600)"><text>Phase 6</text><text y="18">+670 PH/s</text></g>
  <g transform="translate(640,450)"><text>Phase 7</text><text y="18">+350 PH/s</text></g>
  <g transform="translate(770,375)"><text>Phase 8</text><text y="18">+150 PH/s</text></g>
  <g transform="translate(805,160)"><text>Phase 9</text><text y="18">+1250 PH/s</text></g>

  <!-- asic periods -->
  <g transform="translate(0,1180)">
      <text x="500" y="-90" class="lg" text-anchor="middle">Efficiency of mining ASICs (joule/gigahash)</text>
      <!-- kncminer -->
      <line x1="85" x2="292" y1="0" y2="0" class="asic" stroke="orange" opacity="0.3" />
      <line x1="292" x2="536" y1="0" y2="0" class="asic" stroke="orange" opacity="0.6" />
      <line x1="556" x2="576" y1="0" y2="0" stroke-width="50" stroke="orange" opacity="0.6" />
      <line x1="596" x2="616" y1="0" y2="0" stroke-width="50" stroke="orange" opacity="0.6" />
      <line x1="636" x2="656" y1="0" y2="0" stroke-width="50" stroke="orange" opacity="0.6" />
      <use xlink:href="#zigzag" x="656" y="0" />
      <!-- spondoolies -->
      <line x1="85" x2="536" y1="50" y2="50" class="asic" stroke="#f0f" opacity="0.3" />
      <line x1="556" x2="576" y1="50" y2="50" stroke-width="50" stroke="#f0f" opacity="0.3" />
      <line x1="596" x2="616" y1="50" y2="50" stroke-width="50" stroke="#f0f" opacity="0.3" />
      <line x1="636" x2="656" y1="50" y2="50" stroke-width="50" stroke="#f0f" opacity="0.3" />
      <use xlink:href="#zigzag" x="656" y="50" />
      <!-- bitfury -->
      <line x1="85" x2="156" y1="100" y2="100" class="asic" stroke="royalblue" opacity="0.3" />
      <line x1="156" x2="848" y1="100" y2="100" class="asic" stroke="royalblue" opacity="0.6" />
      <line x1="848" x2="1000" y1="100" y2="100" class="asic" stroke="royalblue" opacity="0.9" />
      <!-- bitmain -->
      <line x1="85" x2="431" y1="150" y2="150" class="asic" stroke="red" opacity="0.3" />
      <line x1="431" x2="709" y1="150" y2="150" class="asic" stroke="red" opacity="0.6" />
      <line x1="709" x2="1000" y1="150" y2="150" class="asic" stroke="red" opacity="0.9" />
      <!-- canaan -->
      <line x1="85" x2="464" y1="200" y2="200" class="asic" stroke="green" opacity="0.3" />
      <line x1="464" x2="883" y1="200" y2="200" class="asic" stroke="green" opacity="0.6" />
      <line x1="883" x2="1000" y1="200" y2="200" class="asic" stroke="green" opacity="0.9" />

    <a xlink:href="http://blog.zorinaq.com/bitcoin-electricity-consumption">
	<text x="500" y="250" text-anchor="middle" text-decoration="underline">
	Source: http://blog.zorinaq.com/bitcoin-electricity-consumption
	</text>
    </a>
    <text x="500" y="270" text-anchor="middle">Last updated: 11 Mar 2017</text>

      <!-- dashed lines -->
      <line x1="85" x2="85" y1="-260" y2="225" class="dash" />
      <line x1="156" x2="156" y1="-270" y2="125" class="dash" />
      <line x1="292" x2="292" y1="-280" y2="25" class="dash" />
      <line x1="431" x2="431" y1="-315" y2="175" class="dash" />
      <line x1="464" x2="464" y1="-315" y2="225" class="dash" />
      <line x1="536" x2="536" y1="-425" y2="75" class="dash" />
      <line x1="709" x2="709" y1="-640" y2="175" class="dash" />
      <line x1="848" x2="848" y1="-750" y2="125" class="dash" />
      <line x1="883" x2="883" y1="-780" y2="225" class="dash" />
      <line x1="1000" x2="1000" y1="-1160" y2="225" class="dash" />

      <text y="0" x="80" dy="6" text-anchor="end" class="lg">KnCMiner</text>
      <text y="0" x="90" dy="6">Neptune: 0.70 J/GH</text>
      <text y="0" x="330" dy="6">Solar: 0.07 J/GH</text>
      <text y="0" x="656" dy="6" dx="5">bankrupted</text>
      <text y="50" x="80" dy="6" text-anchor="end" class="lg">Spondoolies</text>
      <text y="50" x="190" dy="6">RockerBox: 0.66 J/GH</text>
      <text y="50" x="656" dy="6" dx="5">bankrupted</text>
      <text y="100" x="80" dy="6" text-anchor="end" class="lg">Bitfury</text>
      <text y="100" x="85" dy="-4">BF864C55:</text>
      <text y="100" x="85" dy="14">0.50 J/GH</text>
      <text y="100" x="410" dy="6">Bitfury 28nm: 0.20 J/GH</text>
      <text y="100" x="847" dy="-4">BF8162C16:</text>
      <text y="100" x="847" dy="14">0.06-0.13 J/GH</text>
      <text y="150" x="80" dy="6" text-anchor="end" class="lg">Bitmain</text>
      <text y="150" x="155" dy="6">BM1384: 0.51 J/GH</text>
      <text y="150" x="475" dy="6">BM1385: 0.25 J/GH</text>
      <text y="150" x="770" dy="6">BM1387: 0.10 J/GH</text>
      <text y="200" x="80" dy="6" text-anchor="end" class="lg">Canaan</text>
      <text y="200" x="175" dy="6">A3222: 0.68 J/GH</text>
      <text y="200" x="600" dy="6">A3218: 0.29 J/GH</text>
      <text y="200" x="892" dy="-4">A3212:</text>
      <text y="200" x="892" dy="14">0.15 J/GH</text>

      <!-- min/max efficiency -->
      <g transform="translate(0,-25)">
	<polyline class="phases" points="85,0 85,-15 1000,-15 1000,0" />
	<use xlink:href="#slotx" x="85" y="0"/>
	<use xlink:href="#slotx" x="156" y="0"/>
	<use xlink:href="#slotx" x="292" y="0"/>
	<use xlink:href="#slotx" x="431" y="0"/>
	<use xlink:href="#slotx" x="464" y="0"/>
	<use xlink:href="#slotx" x="536" y="0"/>
	<use xlink:href="#slotx" x="709" y="0"/>
	<use xlink:href="#slotx" x="848" y="0"/>
	<use xlink:href="#slotx" x="883" y="0"/>
	<use xlink:href="#slotx" x="1000" y="0"/>
	<g transform="translate(0,-37)">
	    <text x="80" text-anchor="end">Best J/GH</text>
	    <text x="80" y="18" text-anchor="end">Worst J/GH</text>
	    <text x="100">0.50</text> <text x="100" y="18">0.70</text>
	    <text x="205">0.20</text> <text x="205" y="18">0.70</text>
	    <text x="340">0.07</text> <text x="340" y="18">0.68</text>
	    <text x="425">0.07</text> <text x="425" y="18">0.68</text>
	    <text x="480">0.07</text> <text x="480" y="18">0.66</text>
	    <text x="600">0.20</text> <text x="600" y="18">0.29</text>
	    <text x="750">0.10</text> <text x="750" y="18">0.29</text>
	    <text x="845">0.06</text> <text x="845" y="18">0.29</text>
	    <text x="920">0.06</text> <text x="920" y="18">0.15</text>
	</g>
      </g>
  </g>
</svg>
